<svg width="17" height="13" viewBox="0 0 17 13" fill="none" xmlns="http://www.w3.org/2000/svg">
<path d="M16.1562 0.636353H1.29897C0.982898 0.636353 0.727539 0.872716 0.727539 1.16528V11.7438C0.727539 12.0364 0.982898 12.2727 1.29897 12.2727H16.1562C16.4723 12.2727 16.7276 12.0364 16.7276 11.7438V1.16528C16.7276 0.872716 16.4723 0.636353 16.1562 0.636353ZM15.4419 11.0826H2.01326V10.4231L4.48649 7.70743L7.16687 10.6496L11.3365 6.07437L15.4419 10.5802V11.0826ZM15.4419 8.93718L11.4455 4.5504C11.3883 4.48759 11.2848 4.48759 11.2276 4.5504L7.16687 9.0066L4.59542 6.18511C4.53828 6.1223 4.43471 6.1223 4.37756 6.18511L2.01326 8.78016V1.82644H15.4419V8.93718ZM5.01328 5.52891C5.21965 5.52891 5.42399 5.49129 5.61465 5.41819C5.8053 5.3451 5.97854 5.23796 6.12446 5.10289C6.27038 4.96782 6.38613 4.80747 6.4651 4.631C6.54408 4.45453 6.58472 4.26538 6.58472 4.07437C6.58472 3.88336 6.54408 3.69421 6.4651 3.51774C6.38613 3.34127 6.27038 3.18092 6.12446 3.04585C5.97854 2.91078 5.8053 2.80364 5.61465 2.73054C5.42399 2.65745 5.21965 2.61982 5.01328 2.61982C4.59651 2.61982 4.19681 2.77307 3.90211 3.04585C3.60741 3.31863 3.44184 3.6886 3.44184 4.07437C3.44184 4.46014 3.60741 4.83011 3.90211 5.10289C4.19681 5.37567 4.59651 5.52891 5.01328 5.52891ZM5.01328 3.61156C5.29007 3.61156 5.51329 3.81817 5.51329 4.07437C5.51329 4.33057 5.29007 4.53718 5.01328 4.53718C4.7365 4.53718 4.51328 4.33057 4.51328 4.07437C4.51328 3.81817 4.7365 3.61156 5.01328 3.61156Z" fill="white"/>
</svg>
