<svg width="100" height="32" viewBox="0 0 100 32" fill="none" xmlns="http://www.w3.org/2000/svg">
<g opacity="0.99">
<path opacity="0.99" d="M44.3662 31.9332H42.3944L37.1223 23.2606L37.0722 23.2773V31.9332H35.092V20.0522H37.0722L42.3443 28.7164L42.3944 28.6997V20.0522H44.3662V31.9332Z" fill="#A18474"/>
<path opacity="0.99" d="M56.2453 31.9332H54.2735V26.8616H48.9513V31.9248H46.9712V20.0522H48.9513V25.2741H54.2735V20.0522H56.2453V31.9332Z" fill="#A18474"/>
<path opacity="0.99" d="M65.2855 29.1593H60.6317L59.6876 31.9332H57.6824L62.0521 20.0522H63.932L68.2516 31.9332H66.238L65.2855 29.1593ZM61.2082 27.505H64.7257L63.0046 22.4334H62.9544L61.2082 27.505Z" fill="#A18474"/>
<path opacity="0.99" d="M69.6235 31.9332V20.0522H73.4752C74.9791 20.0522 76.2073 20.5201 77.1515 21.4642C78.0956 22.4084 78.5635 23.6198 78.5635 25.0987V26.9034C78.5635 28.3906 78.0956 29.6021 77.1515 30.5379C76.2073 31.4736 74.9791 31.9415 73.4752 31.9415H69.6235V31.9332ZM71.6037 21.6397V30.3373H73.4167C74.4026 30.3373 75.1713 30.0198 75.7395 29.3765C76.3076 28.7332 76.5833 27.906 76.5833 26.8867V25.0736C76.5833 24.071 76.2993 23.2439 75.7395 22.6005C75.1797 21.9572 74.4026 21.6397 73.4167 21.6397H71.6037Z" fill="#A18474"/>
<path opacity="0.99" d="M86.8597 29.1593H82.2142L81.2701 31.9332H79.2649L83.6262 20.0522H85.5061L89.8257 31.9332H87.8121L86.8597 29.1593ZM82.7824 27.505H86.2999L84.5787 22.4334H84.5286L82.7824 27.505Z" fill="#A18474"/>
<path opacity="0.99" d="M99.3162 21.6397H95.7235V31.9248H93.7433V21.6397H90.1506V20.0522H99.3162V21.6397Z" fill="#A18474"/>
</g>
<path d="M6.11593 32V21.2804L24.8898 7.57807L30.0616 11.3546L35.2501 7.56971L24.8898 0L0 18.1723V32H6.11593Z" fill="#A18474"/>
<path d="M26.3842 32V21.2804L45.1581 7.57807L55.5184 7.56971L45.1581 0L20.2683 18.1723V32H26.3842Z" fill="#A18474"/>
</svg>
