<svg width="15" height="13" viewBox="0 0 15 13" fill="none" xmlns="http://www.w3.org/2000/svg">
<path d="M0.971359 5.15888C1.00555 5.14797 0.997912 5.11523 1.00555 5.09123C1.15177 4.64675 1.49695 4.39541 1.96798 4.39505C4.58575 4.39432 7.20316 4.39468 9.82093 4.39468C10.0021 4.39468 10.0021 4.39468 10.0021 4.207C10.0021 3.44789 10.0046 2.68915 10.0006 1.93004C9.99843 1.53249 9.72418 1.21458 9.32917 1.13493C8.96434 1.06145 8.58024 1.26805 8.4293 1.61796C8.36855 1.75909 8.35982 1.90749 8.36346 2.05844C8.36601 2.16283 8.36855 2.26795 8.36201 2.37198C8.34891 2.58221 8.17905 2.74698 7.97318 2.7568C7.77422 2.76626 7.56871 2.62331 7.55562 2.4229C7.52943 2.02025 7.51888 1.61687 7.70511 1.23532C8.03792 0.554049 8.79848 0.174678 9.52958 0.337629C10.2767 0.504218 10.8117 1.15966 10.8201 1.92095C10.8226 2.15737 10.8277 2.3938 10.8179 2.62986C10.8132 2.74335 10.8532 2.76735 10.9543 2.75899C11.0492 2.75098 11.1453 2.75426 11.2406 2.75826C11.4628 2.76808 11.6359 2.94594 11.6378 3.16273C11.6396 3.37915 11.4683 3.56028 11.2478 3.57483C11.2162 3.57702 11.1842 3.57374 11.1525 3.57593C11.0452 3.58356 10.8987 3.52791 10.8412 3.59848C10.787 3.66504 10.8234 3.8058 10.8219 3.91383C10.8205 4.02731 10.8296 4.14189 10.8194 4.25465C10.8096 4.36522 10.839 4.39796 10.9565 4.39723C11.8516 4.39141 12.7471 4.39286 13.6423 4.39505C13.8143 4.39541 13.9878 4.37577 14.1588 4.41251C14.5618 4.49944 14.8128 4.74423 14.9139 5.1436C14.9183 5.16143 14.9183 5.17925 14.9397 5.18543C14.9397 5.6401 14.9397 6.09476 14.9397 6.54942C14.8408 6.74766 14.6953 6.86842 14.4592 6.85059C14.3734 6.84405 14.2854 6.85787 14.2006 6.84732C14.0904 6.8335 14.054 6.87169 14.046 6.98226C14.0024 7.57587 13.9522 8.16875 13.902 8.762C13.8653 9.19666 13.858 9.63677 13.7787 10.0638C13.6208 10.9127 13.1003 11.4565 12.2696 11.6955C12.1972 11.7162 12.1761 11.7417 12.179 11.8122C12.1841 11.9301 12.1841 12.0487 12.1794 12.1665C12.1692 12.4059 11.9855 12.5834 11.7593 12.5779C11.5352 12.5724 11.3679 12.3971 11.3624 12.1603C11.3606 12.0741 11.3522 11.9861 11.3642 11.9017C11.3824 11.7737 11.3275 11.7573 11.2144 11.7573C9.52813 11.761 7.84187 11.7599 6.15561 11.7599C5.65548 11.7599 5.15572 11.7617 4.65559 11.7581C4.57338 11.7573 4.54174 11.7762 4.54902 11.8628C4.55702 11.9577 4.55229 12.0534 4.55047 12.1491C4.5461 12.3968 4.38024 12.5739 4.15109 12.5779C3.9194 12.5819 3.74008 12.4 3.7328 12.1502C3.72989 12.0549 3.72298 11.9581 3.73462 11.8643C3.74954 11.7442 3.69679 11.7068 3.5884 11.6773C2.7951 11.4634 2.19349 10.764 2.11675 9.95322C2.02872 9.0217 1.9538 8.08873 1.87596 7.15613C1.8505 6.8495 1.85341 6.83786 1.54569 6.85278C1.28599 6.86514 1.08484 6.79931 0.972086 6.54906C0.971359 6.08639 0.971359 5.62264 0.971359 5.15888ZM2.67398 6.85023C2.75546 7.83958 2.82566 8.81838 2.9195 9.795C2.98716 10.4977 3.50038 10.9418 4.2042 10.9422C6.70849 10.9429 9.21314 10.9429 11.7174 10.9422C12.4245 10.9418 12.9425 10.4606 12.9988 9.75862C13.0738 8.83038 13.1483 7.90214 13.2298 6.97426C13.2389 6.87023 13.2225 6.84805 13.1182 6.84805C11.3002 6.85132 9.48193 6.85132 7.66401 6.84841C7.57053 6.84841 7.54325 6.86805 7.54398 6.96553C7.54907 7.6017 7.54798 8.23823 7.54652 8.87439C7.54579 9.12537 7.37848 9.30396 7.13478 9.30432C6.04395 9.30687 4.95312 9.30687 3.86229 9.30396C3.63241 9.30323 3.46328 9.12646 3.45564 8.89549C3.45273 8.80456 3.45491 8.71362 3.45491 8.62269C3.45491 8.068 3.45528 7.51368 3.45419 6.95899C3.45419 6.91243 3.48365 6.84659 3.38617 6.84877C3.15047 6.8535 2.91477 6.85023 2.67398 6.85023ZM6.72849 6.85569C6.72813 6.85569 6.72776 6.85569 6.7274 6.85569C6.7274 6.34683 6.72449 5.8376 6.72995 5.32874C6.73104 5.23126 6.70412 5.21089 6.61028 5.21126C5.86936 5.21526 5.1288 5.21562 4.38788 5.2109C4.28931 5.21017 4.27112 5.23927 4.27112 5.33165C4.27476 6.34501 4.27476 7.35873 4.27076 8.37208C4.2704 8.47029 4.29877 8.48956 4.39152 8.48884C5.13244 8.48484 5.873 8.48447 6.61392 8.4892C6.71212 8.48993 6.7314 8.46156 6.73067 8.36881C6.72594 7.86468 6.72849 7.36018 6.72849 6.85569ZM10.8343 6.03184C11.8887 6.03184 12.9428 6.03038 13.9973 6.03438C14.0988 6.03475 14.129 6.01219 14.1231 5.90889C14.1133 5.74121 14.1213 5.57281 14.1202 5.40476C14.1191 5.25491 14.0773 5.21417 13.9242 5.2138C13.6332 5.21308 13.3426 5.21344 13.0516 5.21344C11.2657 5.21344 9.47975 5.2149 7.69383 5.21017C7.56507 5.2098 7.53706 5.24763 7.54361 5.36621C7.55343 5.54735 7.55416 5.72994 7.54325 5.91108C7.53706 6.0191 7.57489 6.03402 7.67165 6.03365C8.72574 6.03038 9.78019 6.03184 10.8343 6.03184ZM2.61142 6.03184C2.8613 6.03184 3.11082 6.03038 3.36071 6.03256C3.42291 6.03293 3.45928 6.02929 3.45673 5.94781C3.45018 5.72994 3.452 5.5117 3.456 5.29383C3.45746 5.22654 3.43454 5.21126 3.37125 5.21162C2.89913 5.21417 2.42665 5.21308 1.95416 5.21271C1.84104 5.21271 1.78866 5.26909 1.78939 5.38076C1.79048 5.56699 1.79412 5.75322 1.78757 5.93945C1.78466 6.02311 1.81776 6.03402 1.88905 6.03256C2.1302 6.02929 2.37063 6.03184 2.61142 6.03184Z" fill="#A18474"/>
</svg>
