<svg width="14" height="12" viewBox="0 0 14 12" fill="none" xmlns="http://www.w3.org/2000/svg">
<path d="M0 9.90501C0 8.74104 0 7.57707 0 6.41311C0.0451038 6.38655 0.0385565 6.33526 0.0538336 6.29525C0.146587 6.05446 0.304087 5.86604 0.544519 5.77729C0.673647 5.72964 0.687105 5.66089 0.683104 5.54959C0.665281 5.06399 0.836966 4.65988 1.22253 4.3587C1.2971 4.3005 1.31783 4.24267 1.31747 4.15464C1.31492 3.24529 1.31274 2.33594 1.31674 1.42695C1.32038 0.597262 1.91873 0.00109124 2.74588 0.000727497C5.56923 -0.000363724 8.39258 0.00036374 11.2159 0C11.3527 0 11.4876 0.00982108 11.6204 0.0465588C12.2497 0.22079 12.6494 0.754397 12.6512 1.43496C12.6538 2.34431 12.6516 3.25366 12.6527 4.16264C12.6527 4.21793 12.6363 4.27431 12.6996 4.32087C13.1339 4.64169 13.3136 5.08182 13.2849 5.61288C13.2805 5.69181 13.3056 5.72709 13.3816 5.75801C13.7497 5.90787 13.9596 6.18868 13.964 6.58406C13.9745 7.63418 13.9727 8.68466 13.9651 9.73478C13.9622 10.1142 13.7643 10.3833 13.4278 10.5554C13.3231 10.6092 13.1583 10.5728 13.1099 10.6656C13.0594 10.7623 13.1008 10.9053 13.0943 11.0275C13.0837 11.221 12.9321 11.3807 12.7436 11.4051C12.5454 11.4305 12.365 11.3134 12.3006 11.1217C12.2646 11.0144 12.273 10.9042 12.2817 10.7973C12.2922 10.6703 12.2602 10.6329 12.1238 10.6332C8.75486 10.6379 5.38627 10.6369 2.0173 10.6372C1.91327 10.6372 1.77542 10.6016 1.71431 10.654C1.64192 10.7162 1.69939 10.8587 1.68994 10.9657C1.68885 10.9791 1.68994 10.993 1.68921 11.0064C1.67612 11.2385 1.49861 11.4098 1.27418 11.4073C1.04903 11.4047 0.877705 11.2301 0.872249 10.9955C0.870067 10.9093 0.865338 10.822 0.873704 10.7365C0.881706 10.6536 0.84897 10.6303 0.771129 10.6172C0.407389 10.5557 0.169503 10.3426 0.0432851 9.99813C0.0320091 9.96721 0.0432851 9.92247 0 9.90501ZM6.98381 6.51059C4.99233 6.51059 3.00086 6.51059 1.00974 6.51059C0.827873 6.51059 0.818052 6.52077 0.818052 6.70373C0.818052 7.67674 0.818052 8.64974 0.818052 9.62275C0.818052 9.80498 0.830783 9.81808 1.00974 9.81808C4.9927 9.81808 8.97529 9.81808 12.9582 9.81808C13.1376 9.81808 13.1499 9.80498 13.1499 9.62275C13.1499 8.65884 13.1499 7.69493 13.1499 6.73101C13.1499 6.51204 13.1488 6.51059 12.9306 6.51059C10.9486 6.51059 8.9662 6.51059 6.98381 6.51059ZM6.986 0.817324C5.56777 0.817324 4.14955 0.816597 2.73133 0.817688C2.38323 0.818052 2.13697 1.0483 2.13479 1.38949C2.1297 2.24864 2.1337 3.1078 2.13152 3.96695C2.13152 4.03643 2.14934 4.0648 2.22318 4.06152C2.33667 4.05643 2.45052 4.05498 2.564 4.06189C2.65021 4.06698 2.68331 4.04479 2.68004 3.95095C2.6724 3.74653 2.67385 3.54174 2.67895 3.33732C2.69168 2.82153 3.0787 2.4316 3.59012 2.42833C4.32633 2.4236 5.0629 2.4236 5.79911 2.42833C6.25997 2.43124 6.61971 2.74733 6.69137 3.20637C6.72992 3.45444 6.70337 3.70542 6.70519 3.95495C6.70591 4.03752 6.72556 4.06771 6.8114 4.06189C6.92452 4.05425 7.0391 4.05316 7.15186 4.06225C7.24789 4.06989 7.26426 4.03024 7.26207 3.94549C7.25698 3.74107 7.25625 3.53628 7.26171 3.33186C7.2759 2.8179 7.66473 2.43088 8.17761 2.42797C8.91382 2.4236 9.65039 2.4236 10.3866 2.42869C10.8406 2.43197 11.1977 2.74951 11.2741 3.19764C11.2996 3.34714 11.2825 3.497 11.2905 3.6465C11.2978 3.78108 11.2312 3.96004 11.3181 4.03715C11.3931 4.10372 11.5691 4.04988 11.699 4.06262C11.8186 4.07425 11.8376 4.02515 11.8372 3.91712C11.8328 3.09907 11.835 2.28065 11.8347 1.4626C11.8343 1.0403 11.6106 0.818052 11.1861 0.818052C9.78607 0.817324 8.38603 0.817324 6.986 0.817324ZM6.986 5.69217C8.7585 5.69217 10.5306 5.69217 12.3032 5.69217C12.3348 5.69217 12.3668 5.68999 12.3984 5.69254C12.4519 5.69726 12.465 5.67399 12.4697 5.62197C12.5174 5.10473 12.1915 4.87085 11.7943 4.87157C8.58572 4.87958 5.37754 4.87594 2.16898 4.8763C1.72122 4.8763 1.50552 5.09891 1.4957 5.54413C1.49279 5.67726 1.53935 5.69472 1.65538 5.69435C3.43225 5.69108 5.20912 5.69217 6.986 5.69217ZM4.6948 3.24347C4.34524 3.24347 3.99605 3.24602 3.6465 3.24202C3.53446 3.24093 3.49118 3.28639 3.49373 3.39588C3.49773 3.57266 3.49554 3.7498 3.49445 3.92694C3.49409 4.01788 3.53919 4.06007 3.62795 4.06007C4.33578 4.06007 5.04362 4.06007 5.75182 4.06043C5.84822 4.06043 5.89186 4.0146 5.89077 3.91821C5.88859 3.7458 5.88641 3.57338 5.8915 3.40097C5.89514 3.28276 5.84603 3.24056 5.72927 3.24202C5.38481 3.24638 5.03962 3.24347 4.6948 3.24347ZM9.27465 3.24347C8.92509 3.24347 8.5759 3.24529 8.22635 3.24238C8.12377 3.24165 8.07503 3.27948 8.07685 3.38533C8.07976 3.56211 8.07976 3.73925 8.07685 3.91639C8.07503 4.0226 8.12705 4.06116 8.22744 4.0608C8.92619 4.05971 9.62529 4.05934 10.324 4.0608C10.4361 4.06116 10.4768 4.00878 10.4743 3.90148C10.4703 3.74289 10.4735 3.58393 10.4732 3.42498C10.4724 3.25911 10.4579 3.24384 10.296 3.24347C9.95557 3.24311 9.61511 3.24347 9.27465 3.24347Z" fill="#A18474"/>
</svg>
