<svg width="15" height="14" viewBox="0 0 15 14" fill="none" xmlns="http://www.w3.org/2000/svg">
<path d="M7.55958 0.439028C8.88687 0.439028 10.2145 0.438664 11.5418 0.439028C12.8025 0.439391 13.8028 1.25708 14.0505 2.48907C14.0818 2.64511 14.0934 2.8037 14.0934 2.96338C14.0927 5.64561 14.0949 8.32746 14.0924 11.0097C14.0909 12.4279 12.9862 13.5319 11.5684 13.5329C8.88614 13.5351 6.20429 13.5351 3.52207 13.5329C2.10457 13.5319 0.999528 12.4261 0.998801 11.009C0.996982 8.32674 0.996982 5.64488 0.998801 2.96266C0.999892 1.54516 2.1053 0.44121 3.52279 0.439391C4.86863 0.437573 6.21411 0.439028 7.55958 0.439028ZM7.53521 12.6607C8.86723 12.6607 10.1989 12.6611 11.5309 12.6607C12.5159 12.6603 13.2197 11.9554 13.2201 10.9686C13.2205 8.314 13.2205 5.65943 13.2201 3.00485C13.2201 2.0173 12.5163 1.31273 11.5313 1.31237C8.87669 1.312 6.22211 1.31237 3.56753 1.31237C2.57343 1.31237 1.87178 2.01511 1.87178 3.01103C1.87178 5.66125 1.87178 8.31109 1.87178 10.9613C1.87178 11.9572 2.57343 12.6603 3.56717 12.6607C4.88973 12.6611 6.21265 12.6607 7.53521 12.6607Z" fill="#A18474"/>
</svg>
