<svg width="9" height="10" viewBox="0 0 9 10" fill="none" xmlns="http://www.w3.org/2000/svg">
<path d="M1.05388 2.1696C1.05388 2.22779 1.05388 2.31727 1.05388 2.40675C1.05388 2.85234 1.05643 3.29792 1.05279 3.7435C1.05061 3.99521 0.852008 4.18799 0.610848 4.18326C0.37369 4.17889 0.182726 3.98939 0.181999 3.7435C0.179452 2.8116 0.18018 1.87933 0.181635 0.94743C0.181998 0.750647 0.29985 0.623702 0.490087 0.623339C1.43108 0.620792 2.37244 0.620428 3.31344 0.623702C3.55569 0.62443 3.74483 0.826305 3.74229 1.06237C3.73974 1.30062 3.55169 1.49159 3.30544 1.49377C2.81439 1.49741 2.32334 1.49486 1.83229 1.49522C1.78828 1.49522 1.7439 1.49522 1.7108 1.49522C3.81904 3.60273 5.928 5.71133 8.0377 7.82102C8.0377 7.79301 8.0377 7.75009 8.0377 7.7068C8.0377 7.22485 8.03697 6.7429 8.03806 6.26094C8.03879 5.98413 8.22248 5.78808 8.47564 5.78953C8.72808 5.79062 8.90995 5.98777 8.91031 6.26494C8.91104 7.17429 8.91104 8.08364 8.91031 8.99299C8.91031 9.23633 8.79537 9.35091 8.55203 9.35091C7.64268 9.35164 6.73333 9.35164 5.82397 9.35091C5.5468 9.35054 5.35002 9.16868 5.34893 8.91588C5.34784 8.66235 5.54389 8.47902 5.8207 8.47866C6.3434 8.47757 6.86609 8.4783 7.3626 8.4783C5.26563 6.38134 3.15703 4.27238 1.05388 2.1696Z" fill="#A18474"/>
</svg>
