<svg width="16" height="14" viewBox="0 0 16 14" fill="none" xmlns="http://www.w3.org/2000/svg">
<path d="M15 4.65381V5.46925C14.9498 5.50974 14.9587 5.57314 14.951 5.62653C14.8958 5.99073 14.7963 6.34576 14.655 6.68261C14.1943 7.7316 13.5475 8.6759 12.7501 9.46355C11.3582 10.8866 9.80416 12.1181 8.12416 13.1292C8.08877 13.1575 8.04584 13.1731 8.00157 13.1739C7.95731 13.1746 7.91398 13.1605 7.87777 13.1333C6.19902 12.1088 4.64412 10.8697 3.24782 9.44357C2.54427 8.73587 1.95067 7.91386 1.48906 7.00819C1.16226 6.39237 0.993604 5.69579 1.00019 4.98855C1.00677 4.28131 1.18827 3.58839 1.52647 2.97959C1.86466 2.37078 2.34759 1.86759 2.92661 1.52065C3.50563 1.17371 4.16037 0.995289 4.82478 1.00335C5.432 0.994487 6.03185 1.14549 6.57102 1.44294C7.11018 1.74039 7.57191 2.17506 7.91518 2.7083C7.9703 2.78633 7.99125 2.83326 8.07007 2.72061C8.46669 2.10346 9.0197 1.61874 9.66479 1.32277C10.3099 1.02679 11.0206 0.931713 11.7145 1.04854C12.4569 1.15945 13.152 1.50112 13.7128 2.03079C14.2735 2.56045 14.6749 3.25453 14.8666 4.026C14.8988 4.23801 14.9433 4.44771 15 4.65381Z" stroke="#A18474"/>
</svg>
