<svg width="24" height="18" viewBox="0 0 24 18" fill="none" xmlns="http://www.w3.org/2000/svg">
<path d="M2.25 0C1.65326 0 1.08097 0.237053 0.65901 0.65901C0.237053 1.08097 0 1.65326 0 2.25L0 15.75C0 16.3467 0.237053 16.919 0.65901 17.341C1.08097 17.7629 1.65326 18 2.25 18H21.75C22.3467 18 22.919 17.7629 23.341 17.341C23.7629 16.919 24 16.3467 24 15.75V2.25C24 1.65326 23.7629 1.08097 23.341 0.65901C22.919 0.237053 22.3467 0 21.75 0H2.25ZM21.75 1.5C21.9489 1.5 22.1397 1.57902 22.2803 1.71967C22.421 1.86032 22.5 2.05109 22.5 2.25V11.25L16.8375 8.3295C16.6968 8.25904 16.5376 8.23459 16.3822 8.25963C16.2269 8.28466 16.0834 8.35791 15.972 8.469L10.407 14.034L6.417 11.376C6.27294 11.2801 6.10014 11.237 5.92791 11.2539C5.75567 11.2709 5.5946 11.3468 5.472 11.469L1.503 15V15.81C1.50121 15.79 1.50021 15.77 1.5 15.75V2.25C1.5 2.05109 1.57902 1.86032 1.71967 1.71967C1.86032 1.57902 2.05109 1.5 2.25 1.5H21.75Z" fill="#A18474"/>
</svg>
