<svg width="13" height="14" viewBox="0 0 13 14" fill="none" xmlns="http://www.w3.org/2000/svg">
<path d="M10.5007 9.00561C10.1269 9.00749 9.75825 9.09328 9.422 9.25666C9.08574 9.42003 8.79045 9.65682 8.55793 9.94955L4.90703 7.66711C5.04009 7.23768 5.04009 6.77803 4.90703 6.3486L8.55793 4.06616C8.92848 4.525 9.44948 4.83788 10.0286 4.94937C10.6078 5.06086 11.2077 4.96377 11.7221 4.67529C12.2366 4.38681 12.6323 3.92556 12.8392 3.37326C13.0461 2.82096 13.0508 2.21325 12.8526 1.65778C12.6543 1.10231 12.2659 0.634943 11.756 0.338462C11.2462 0.0419804 10.6478 -0.0644755 10.067 0.0379525C9.48618 0.14038 8.96036 0.445081 8.58268 0.898078C8.205 1.35107 7.99984 1.92313 8.00355 2.5129C8.00591 2.73624 8.03953 2.95815 8.10344 3.17216L4.45254 5.4546C4.13022 5.04885 3.68967 4.75341 3.19193 4.60925C2.6942 4.46508 2.16394 4.47933 1.67467 4.65001C1.18539 4.82069 0.761332 5.13936 0.461268 5.56183C0.161204 5.9843 0 6.48966 0 7.00785C0 7.52605 0.161204 8.0314 0.461268 8.45388C0.761332 8.87635 1.18539 9.19502 1.67467 9.3657C2.16394 9.53638 2.6942 9.55063 3.19193 9.40646C3.68967 9.2623 4.13022 8.96686 4.45254 8.56111L8.10344 10.8435C8.03953 11.0576 8.00591 11.2795 8.00355 11.5028C8.00355 11.9967 8.15001 12.4795 8.4244 12.8902C8.6988 13.3008 9.08881 13.6209 9.54511 13.8099C10.0014 13.9989 10.5035 14.0484 10.9879 13.952C11.4723 13.8557 11.9173 13.6178 12.2665 13.2686C12.6158 12.9193 12.8536 12.4744 12.95 11.99C13.0463 11.5056 12.9969 11.0035 12.8078 10.5472C12.6188 10.0909 12.2988 9.70086 11.8881 9.42646C11.4774 9.15207 10.9946 9.00561 10.5007 9.00561ZM10.5007 1.01459C10.7971 1.01459 11.0868 1.10246 11.3332 1.2671C11.5796 1.43174 11.7716 1.66574 11.885 1.93952C11.9984 2.2133 12.0281 2.51457 11.9703 2.80521C11.9125 3.09586 11.7698 3.36283 11.5602 3.57237C11.3507 3.78192 11.0837 3.92462 10.793 3.98243C10.5024 4.04024 10.2011 4.01057 9.92736 3.89717C9.65358 3.78376 9.41957 3.59172 9.25494 3.34532C9.0903 3.09893 9.00243 2.80924 9.00243 2.5129C9.00243 2.11553 9.16028 1.73442 9.44127 1.45343C9.72226 1.17245 10.1034 1.01459 10.5007 1.01459ZM2.50972 8.50617C2.21338 8.50617 1.9237 8.4183 1.6773 8.25366C1.43091 8.08902 1.23886 7.85502 1.12546 7.58123C1.01206 7.30745 0.982383 7.00619 1.0402 6.71555C1.09801 6.4249 1.24071 6.15793 1.45025 5.94838C1.6598 5.73884 1.92677 5.59614 2.21742 5.53833C2.50806 5.48051 2.80932 5.51019 3.0831 5.62359C3.35689 5.73699 3.59089 5.92904 3.75553 6.17543C3.92016 6.42183 4.00804 6.71151 4.00804 7.00785C4.00804 7.40523 3.85018 7.78634 3.56919 8.06732C3.2882 8.34831 2.9071 8.50617 2.50972 8.50617ZM10.5007 13.0011C10.2044 13.0011 9.91472 12.9132 9.66832 12.7486C9.42193 12.584 9.22988 12.35 9.11648 12.0762C9.00307 11.8024 8.9734 11.5011 9.03122 11.2105C9.08903 10.9199 9.23173 10.6529 9.44127 10.4433C9.65082 10.2338 9.91779 10.0911 10.2084 10.0333C10.4991 9.97546 10.8003 10.0051 11.0741 10.1185C11.3479 10.2319 11.5819 10.424 11.7465 10.6704C11.9112 10.9168 11.9991 11.2065 11.9991 11.5028C11.9991 11.9002 11.8412 12.2813 11.5602 12.5623C11.2792 12.8433 10.8981 13.0011 10.5007 13.0011Z" fill="#A18474"/>
</svg>
